<svg width="55" height="45" viewBox="0 0 55 45" fill="none" xmlns="http://www.w3.org/2000/svg">
<path d="M5.93583 22.7361C6.2726 31.4921 13.7484 38.2884 22.5103 38.2884H49.0769C52.3481 38.2884 54.9999 40.9402 54.9999 44.2114H22.5821C10.555 44.2114 0.373238 34.8031 0.0102393 22.7809C-0.366298 10.2875 9.69104 0 22.11 0H54.9999C54.9999 3.27122 52.3481 5.92306 49.0769 5.92306H22.11C12.9724 5.92306 5.58129 13.53 5.93583 22.7361Z" fill="white"/>
<path d="M17.3224 22.7803C17.6566 25.3585 19.9784 27.2209 22.5778 27.2209H49.0759C49.0759 30.4921 46.4241 33.144 43.1529 33.144H22.3883C16.1251 33.144 11.0626 27.897 11.3672 21.5585C11.6523 15.6269 16.7656 11.0679 22.7039 11.0679H43.152C46.4232 11.0679 49.0751 13.7197 49.0751 16.9909H22.3875C19.3481 16.9909 16.9188 19.6614 17.3224 22.7803Z" fill="white"/>
</svg>
