<svg width="21" height="17" viewBox="0 0 21 17" fill="none" xmlns="http://www.w3.org/2000/svg">
<path d="M2.46107 8.72218C2.58564 11.9611 5.35095 14.475 8.59202 14.475H18.4191C19.6291 14.475 20.6101 15.456 20.6101 16.666H8.61861C4.1697 16.666 0.403443 13.1858 0.269168 8.73877C0.129886 4.1174 3.85014 0.312012 8.44396 0.312012H20.6101C20.6101 1.52205 19.6291 2.50298 18.4191 2.50298H8.44396C5.06393 2.50298 2.32992 5.3168 2.46107 8.72218Z" fill="#98999C"/>
<path d="M6.67301 8.73824C6.79664 9.69193 7.6555 10.3808 8.61702 10.3808H18.4188C18.4188 11.5909 17.4379 12.5718 16.2278 12.5718H8.54691C6.23012 12.5718 4.35749 10.6309 4.47016 8.28627C4.57564 6.09218 6.46707 4.40576 8.66367 4.40576H16.2275C17.4375 4.40576 18.4185 5.38669 18.4185 6.59673H8.54661C7.42233 6.59673 6.52371 7.58454 6.67301 8.73824Z" fill="#98999C"/>
</svg>
